#!OML:ASF F:\VICON\USERDATA\INSTALL\rory3\rory3.ASF
:FULLY-SPECIFIED
:DEGREES
28
root 5.437037177056833 17.972720904548492 5.476095452851798 -2.534273004133749 0.015207806391475565 1.9926853069272208
lfemur 2.0347137565606292 -1.4865590469535803 -27.840903336418407
ltibia 21.783956705783428
lfoot -11.666473636405918 0.9093178832755475
ltoes 4.85112605610721
rfemur -29.265853181116327 0.13184201886698332 20.795671137704723
rtibia 44.363887047651524
rfoot -7.914749490236752 -9.74841664708482
rtoes -4.280797469665379
lowerback 1.0 -0.4677172595889352 -3.0259659212775714
upperback 1.1803961051617693 -1.3867699398206672 0.9854672977198312
thorax -5.082349875787279 -0.6149857930318468 3.4562097819695605
lowerneck -17.955100780529293 -2.8239133834982084 -2.272628223244966
upperneck 18.627090203440837 -2.9628070877437134 0.08842506701756558
head 10.061224424273211 -1.6196305667462805 -0.16679397117512174
lclavicle 2.3988857131773477e-15 4.784701635245504e-15
lhumerus -29.729397502972446 4.301387482233986 80.18536648059897
lradius 33.83617475744619
lwrist 5.796442801003647
lhand -27.368281519011664 21.793822937308434
lfingers nan
lthumb -0.23040809606923351 53.027679500463684
rclavicle 1.298600454559904e-16 3.3961418659880625e-15
rhumerus -31.06663561400105 -22.16272974823781 -76.29874069769359
rradius 28.16764039260194
rwrist 1.204640082204222
rhand -17.619375330076156 1.0
rfingers nan
rthumb 8.709664907716284 -7.976221110771403
29
root 5.3942154269191045 17.962762616594546 6.9513378896454245 -1.78584087231773 0.896026406299367 2.3201292810631524
lfemur 5.861151539925681 -1.0035901841504797 -28.31535606996991
ltibia 17.936079043994205
lfoot -7.257180099704209 -1.6886756527650233
ltoes 3.27372353723071
rfemur -28.3932623048723 3.078772214280141 19.48680452689789
rtibia 31.703032101014713
rfoot -7.085991289025014 -12.553302518335478
rtoes -4.316970295570343
lowerback 1.0 -0.7218351291004117 -3.734232144700252
upperback 1.2097016749340757 -1.5976979833200682 0.8803118533264374
thorax -4.6222413943135185 -0.7408844284293543 3.5611289684327874
lowerneck -18.333578783507114 -2.6332217762119896 -2.160444018400057
upperneck 18.619338524116458 -3.115506007263768 0.32583786944489573
head 9.941537716440392 -1.636252825430975 -0.2061078863630365
lclavicle 9.085350657118115e-16 7.20865973570245e-16
lhumerus -28.438753646897958 2.468119343516304 80.2875518370413
lradius 34.30679053388158
lwrist 5.820182303299118
lhand -27.02019368910488 23.26410571060183
lfingers nan
lthumb -0.6666817300185299 53.1356141109696
rclavicle -5.451668854221665e-17 -6.275003881383101e-16
rhumerus -32.176606372971975 -23.840045764074773 -75.45858103493524
rradius 27.12346537236287
rwrist 2.9398399396231527
rhand -17.713098847623492 1.0
rfingers nan
rthumb 9.024260757277405 -7.528747756731967
30
root 5.350882029144579 17.92508716205223 8.055630695505378 -1.1612609967633722 1.5391361564892918 2.733920699479571
lfemur 8.529560006600137 -0.6951054866900237 -28.373964715916845
ltibia 14.42133525394668
lfoot -4.091911113345783 -5.280579534315852
ltoes 1.112157156407246
rfemur -27.106023075229515 7.424359056093934 16.908027825420383
rtibia 20.90730455385548
rfoot -8.662540965847807 -15.522288954175526
rtoes -0.07033914171926847
lowerback 1.0 -0.9967031702156308 -4.5371355732285705
upperback 1.1974048827902775 -1.8253775092736806 1.0267633815254287
thorax -4.530255682459158 -0.8160707498536417 3.691058754077373
lowerneck -18.090448494524637 -2.6910027798375458 -2.238521530361601
upperneck 18.34898689508789 -2.9840615605223073 0.5261881435341841
head 9.996664462379194 -1.5850734965448257 -0.15619740769065849
lclavicle -4.46063136499141e-15 -2.3298893391344324e-15
lhumerus -27.464276245209508 0.8607789969581882 80.6668278221654
lradius 34.768208914395714
lwrist 5.89565586644806
lhand -27.613827961770234 22.25184702312056
lfingers nan
lthumb -1.1985515089615468 52.13736506838401
rclavicle -5.143121934674236e-15 -1.0053900957464071e-15
rhumerus -32.68162352300195 -25.703152048425167 -74.4418125551696
rradius 25.88201034291884
rwrist 5.515824228232249
rhand -17.727044053303995 1.0
rfingers nan
rthumb 8.549234601523645 -6.427590935665635
31
root 5.285172800102298 17.840796569248273 9.537288043070069 -0.670206825788366 1.6432951503893438 2.8518851495700273
lfemur 10.588193431876908 -1.6892934390757617 -28.156426541030967
ltibia 15.09357344200004
lfoot -2.6268192914738924 -6.469034444145834
ltoes -1.5552203137127933
rfemur -26.50231059708197 8.137973041076656 16.296481217731618
rtibia 16.179288886095367
rfoot -11.750509222787855 -17.453942330250612
rtoes -0.38523684525216684
lowerback 1.0 -1.2763938019661376 -4.296013048786149
upperback 1.0823481662925032 -2.1661384467665434 1.0779952691177357
thorax -4.181631947451437 -1.0345792055181682 4.15302808503648
lowerneck -18.604525245820472 -2.5364466742700227 -2.2540647715560915
upperneck 18.484025366973757 -3.0935270241875026 0.5819858101794433
head 10.11299042741785 -1.5926638823280799 -0.14952296851686675
lclavicle -2.202871427429408e-15 -3.0041174418840555e-15
lhumerus -27.046713051978273 -0.35060898115005124 80.96529781312788
lradius 34.92402605058171
lwrist 6.309683715036016
lhand -27.09869303048856 23.196203130414087
lfingers nan
lthumb -0.842376981215792 52.79693824708052
rclavicle 1.461681872289952e-15 -1.942602013218822e-15
rhumerus -33.705875939531296 -28.12139968635342 -73.34031078622914
rradius 24.167865490890584
rwrist 9.110065103033568
rhand -17.6594249679478 1.0
rfingers nan
rthumb 8.902485139306764 -5.753363547376516
